<?xml version="1.0" encoding="UTF-8" standalone="no"?>
<svg
   xmlns:dc="http://purl.org/dc/elements/1.1/"
   xmlns:cc="http://creativecommons.org/ns#"
   xmlns:rdf="http://www.w3.org/1999/02/22-rdf-syntax-ns#"
   xmlns:svg="http://www.w3.org/2000/svg"
   xmlns="http://www.w3.org/2000/svg"
   height="24"
   width="24"
   xml:space="preserve"
   viewBox="0 0 24 24"
   y="0px"
   x="0px"
   id="Layer_1"
   version="1.1"><metadata
   id="metadata19"><rdf:RDF><cc:Work
       rdf:about=""><dc:format>image/svg+xml</dc:format><dc:type
         rdf:resource="http://purl.org/dc/dcmitype/StillImage" /><dc:title></dc:title></cc:Work></rdf:RDF></metadata><defs
   id="defs17" />
F
		<path
   style="fill:#000000;fill-opacity:1;stroke-width:0.04893407"
   id="path2"
   d="M 11.999904,-2.2681382e-7 C 8.4568323,-2.2681382e-7 4.6924799,1.0971505 4.6924799,3.1317804 v 9.3953426 c 0,2.056553 3.6756354,3.13178 7.3074241,3.13178 3.631789,0 7.30752,-1.075227 7.30752,-3.13178 V 3.1317804 C 19.307474,1.0971505 15.543025,-2.2681382e-7 11.999904,-2.2681382e-7 Z m 0,1.04386302681382 c 3.880276,0 6.263562,1.216206 6.263562,2.0879176 0,0.8716626 -2.383286,2.0879175 -6.263562,2.0879175 -3.8802758,0 -6.2635614,-1.216206 -6.2635614,-2.0879175 0,-0.8716627 2.3832856,-2.0879176 6.2635614,-2.0879176 z M 5.7363426,4.8000305 c 1.3644295,0.9583253 3.8625133,1.4635305 6.2635614,1.4635305 2.401048,0 4.899133,-0.5052052 6.263562,-1.4635305 V 6.263561 c 0,0.8716626 -2.383286,2.0879175 -6.263562,2.0879175 -3.8802758,0 -6.2635614,-1.2162059 -6.2635614,-2.0879175 z m 0,3.1317811 c 1.3644295,0.9583249 3.8625133,1.46353 6.2635614,1.46353 2.401048,0 4.899133,-0.5052051 6.263562,-1.46353 v 1.46353 c 0,0.8716634 -2.383286,2.0879184 -6.263562,2.0879184 -3.8802758,0 -6.2635614,-1.216206 -6.2635614,-2.0879184 z m 0,3.1317814 c 1.3644295,0.958325 3.8625133,1.46353 6.2635614,1.46353 2.401048,0 4.899133,-0.505205 6.263562,-1.46353 v 1.46353 c 0,0.987539 -2.57222,2.087918 -6.263562,2.087918 -3.6913414,0 -6.2635614,-1.10033 -6.2635614,-2.087918 z M 12,16.701715 c -1.171287,0 -2.0888738,0.687965 -2.0888738,1.565891 0.00306,2.03851 3.1840988,0.790286 3.1317808,2.088969 0,0.207725 -0.416549,0.522026 -1.04501,0.522026 -0.61696,0 -1.024115,-0.294444 -1.04501,-0.505301 -0.02716,-0.287096 -0.274567,-0.501066 -0.568954,-0.469747 -0.287096,0.02716 -0.4969071,0.281857 -0.4697485,0.568953 0.079368,0.826742 0.9750865,1.449959 2.0847635,1.449959 1.171287,0 2.088874,-0.687964 2.088874,-1.56589 0,-2.00428 -3.093531,-1.249458 -3.131781,-2.087918 0,-0.207725 0.41655,-0.521932 1.04501,-0.521932 0.616961,0 1.024116,0.293394 1.04501,0.504251 0.02716,0.287096 0.280831,0.508357 0.568954,0.469748 0.287096,-0.02716 0.496907,-0.281858 0.469748,-0.568954 C 14.005443,17.324979 13.109726,16.701715 12,16.701715 Z M 1.0366654,16.70267 C 0.9824936,16.703062 0.9275725,16.711953 0.87380642,16.73 0.6608454,16.801005 0.516836,17.000328 0.516836,17.224789 v 4.175644 c 0,0.288123 0.23380774,0.522026 0.5219318,0.522026 0.2881231,2e-6 0.5219318,-0.233901 0.5219318,-0.522025 v -2.609753 l 0.6263942,0.835128 c 0.1973018,0.26307 0.6388543,0.26307 0.8351284,0 l 0.6263941,-0.835128 v 2.609753 c 0,0.288124 0.2338077,0.522027 0.5219318,0.522027 0.2881241,0 0.5219318,-0.233903 0.5219318,-0.522027 V 17.22479 c 0,-0.224461 -0.1441051,-0.423785 -0.3570661,-0.494789 -0.2119333,-0.07203 -0.447763,0.002 -0.5824299,0.181592 L 2.6045623,18.442025 1.456332,16.911593 C 1.3553318,16.776939 1.1991771,16.701546 1.0366654,16.702668 Z m 15.6610046,9.8e-5 c -0.863343,0 -1.56589,0.702547 -1.56589,1.56589 v 2.087917 c 0,0.863343 0.702547,1.56589 1.56589,1.56589 h 1.04396 c 0.241147,0 0.466601,-0.05946 0.670167,-0.156551 l 0.0041,0.0041 c 0.102321,0.101244 0.235947,0.152441 0.369585,0.152441 0.133639,0 0.267242,-0.05115 0.368535,-0.152441 0.203566,-0.203566 0.203566,-0.53446 0,-0.738026 l -0.0042,-0.0042 c 0.09811,-0.203566 0.157698,-0.430073 0.157698,-0.67122 V 18.26865 c 0,-0.863343 -0.702547,-1.56589 -1.56589,-1.56589 z m 4.175645,0 c -0.288124,0 -0.522027,0.233903 -0.522027,0.522028 v 4.175643 c 0,0.288124 0.233903,0.522027 0.522027,0.522027 h 2.087821 c 0.288124,-1e-6 0.522028,-0.233904 0.522028,-0.522028 0,-0.288125 -0.233904,-0.521837 -0.522028,-0.521837 h -1.56589 v -3.653807 c 0,-0.288123 -0.233808,-0.522027 -0.521931,-0.522026 z m -4.175739,1.043959 h 1.043958 c 0.288124,0 0.521932,0.233807 0.521932,0.521931 v 1.872876 c -0.256306,-0.286688 -0.698242,-0.466155 -0.927454,-0.108478 -0.254934,0.397815 -0.0798,0.577366 0.188377,0.845546 h -0.826813 c -0.288125,0 -0.521932,-0.233902 -0.521932,-0.522026 v -2.087918 c 0,-0.288124 0.233807,-0.521931 0.521932,-0.521931 z m -8.3686834,1.043671 c -0.1850234,0.0064 -0.3602775,0.111149 -0.449295,0.288443 L 7.3022337,20.23443 6.7249645,19.079796 C 6.5955339,18.821963 6.2823823,18.717619 6.0244992,18.846022 c -0.2578334,0.129431 -0.3633005,0.442581 -0.23387,0.700465 l 0.9280272,1.855002 -0.9269755,1.852995 c -0.1284038,0.257835 -0.024009,0.570986 0.2338699,0.700466 0.2623386,0.124381 0.590227,-0.02681 0.7004644,-0.233776 l 2.087822,-4.175643 C 8.9422897,19.287648 8.8379422,18.97445 8.580062,18.84497 8.499153,18.80485 8.4129953,18.78748 8.3288926,18.7904 Z" />

		

		

		

		

		
</svg>