<?xml version="1.0" encoding="UTF-8" standalone="no"?>
<svg
   xmlns:dc="http://purl.org/dc/elements/1.1/"
   xmlns:cc="http://creativecommons.org/ns#"
   xmlns:rdf="http://www.w3.org/1999/02/22-rdf-syntax-ns#"
   xmlns:svg="http://www.w3.org/2000/svg"
   xmlns="http://www.w3.org/2000/svg"
   xml:space="preserve"
   viewBox="0 0 24.000001 24.000001"
   height="24"
   width="24"
   y="0px"
   x="0px"
   version="1.1"><metadata
   id="metadata45"><rdf:RDF><cc:Work
       rdf:about=""><dc:format>image/svg+xml</dc:format><dc:type
         rdf:resource="http://purl.org/dc/dcmitype/StillImage" /><dc:title></dc:title></cc:Work></rdf:RDF></metadata><defs
   id="defs43">
	
	
	
</defs>

<path
   d="m 19.804688,6.1406255 -2.31836,0.06055 V 16.208987 L 24,16.376956 v -1.962893 l -4.195312,-0.06836 z m -8.398438,0.05664 c -2.7830531,0.07354 -4.5117186,2.253749 -4.5117187,5.0898435 -1e-6,3.088849 1.9221196,4.711854 4.0234377,4.910156 0.223206,0.02059 0.446951,0.06827 0.658203,0.160156 1.274155,0.586112 2.424137,1.044502 3.820312,1.501954 l 0.646485,-1.716797 c -0.778107,-0.181204 -1.623871,-0.379245 -2.375,-0.615234 v -0.05859 c 1.289511,-0.55681 2.330078,-2.128264 2.330078,-4.382812 0,-2.6261235 -1.548624,-4.8242885 -4.318359,-4.8886725 -0.08935,-0.0021 -0.181562,-0.0024 -0.273438,0 z m -7.8886718,0.210938 c -0.05953,-8.3e-5 -0.1201536,2.34e-4 -0.1816406,0.002 -2.02296,0.05346 -3.2246094,1.276814 -3.2246094,2.832031 0,1.3254525 0.911697,2.1634085 2.328125,2.6992175 1.038084,0.404245 1.4511719,0.738807 1.4511719,1.31836 0,0.608026 -0.477613,1.000063 -1.375,0.984375 -0.825752,-0.01403 -1.6187074,-0.312704 -2.1308594,-0.605469 L 1e-7,15.335984 c 0.472558,0.296335 1.4251436,0.593325 2.4003906,0.61914 2.388356,0.0635 3.5337012,-1.24659 3.5332032,-2.824219 0,-1.327197 -0.7394905,-2.19192 -2.2890626,-2.796875 C 2.5274253,9.8866245 2.044922,9.6307035 2.044922,9.0430155 c 0,-0.478285 0.4062791,-0.896377 1.2519531,-0.910156 0.853559,-0.01444 1.4794614,0.237838 1.8339844,0.414062 L 5.5781251,6.8261725 C 5.0846751,6.6029105 4.4105362,6.4096155 3.5175782,6.4082035 Z m 7.8339838,1.53125 c 1.471711,-0.02523 2.302735,1.444415 2.302735,3.2343745 0,1.920945 -0.860676,3.320322 -2.318359,3.294922 -1.4209111,-0.02548 -2.2744581,-1.433357 -2.2597661,-3.251953 0,-1.7902925 0.825843,-3.2521925 2.2753901,-3.2773435 z"
   style="fill:#000" />
</svg>