<?xml version="1.0" encoding="UTF-8" standalone="no"?>
<svg
   xmlns:dc="http://purl.org/dc/elements/1.1/"
   xmlns:cc="http://creativecommons.org/ns#"
   xmlns:rdf="http://www.w3.org/1999/02/22-rdf-syntax-ns#"
   xmlns:svg="http://www.w3.org/2000/svg"
   xmlns="http://www.w3.org/2000/svg"
   xml:space="preserve"
   viewBox="0 0 24.000001 24.000001"
   height="24"
   width="24"
   y="0px"
   x="0px"
   id="Capa_1"
   version="1.1"><metadata
   id="metadata45"><rdf:RDF><cc:Work
       rdf:about=""><dc:format>image/svg+xml</dc:format><dc:type
         rdf:resource="http://purl.org/dc/dcmitype/StillImage" /><dc:title></dc:title></cc:Work></rdf:RDF></metadata><defs
   id="defs43">
	
	
	
</defs>

<g
   transform="translate(0,-564.59998)"
   id="g10">
</g>
<g
   transform="translate(0,-564.59998)"
   id="g12">
</g>
<g
   transform="translate(0,-564.59998)"
   id="g14">
</g>
<g
   transform="translate(0,-564.59998)"
   id="g16">
</g>
<g
   transform="translate(0,-564.59998)"
   id="g18">
</g>
<g
   transform="translate(0,-564.59998)"
   id="g20">
</g>
<g
   transform="translate(0,-564.59998)"
   id="g22">
</g>
<g
   transform="translate(0,-564.59998)"
   id="g24">
</g>
<g
   transform="translate(0,-564.59998)"
   id="g26">
</g>
<g
   transform="translate(0,-564.59998)"
   id="g28">
</g>
<g
   transform="translate(0,-564.59998)"
   id="g30">
</g>
<g
   transform="translate(0,-564.59998)"
   id="g32">
</g>
<g
   transform="translate(0,-564.59998)"
   id="g34">
</g>
<g
   transform="translate(0,-564.59998)"
   id="g36">
</g>
<g
   transform="translate(0,-564.59998)"
   id="g38">
</g>
<path
   id="rect852"
   d="m 19.804102,6.1411243 -2.317383,0.05982 V 16.209106 L 24,16.377713 v -1.964117 l -4.195898,-0.06825 z m -8.125267,0.05609 c -0.08935,-0.0021 -0.180004,-0.0019 -0.27188,4.98e-4 -2.7830529,0.07354 -4.5128481,2.2532624 -4.5128481,5.0893577 -1e-6,3.08885 1.9215951,4.711097 4.0229131,4.9094 0.223206,0.02059 0.448101,0.06959 0.659353,0.161474 1.274155,0.586111 2.423275,1.043481 3.81945,1.500932 l 0.646708,-1.717041 c -0.778107,-0.181204 -1.62397,-0.377809 -2.375099,-0.613798 v -0.05852 c 1.289511,-0.55681 2.33019,-2.12844 2.33019,-4.382989 0,-2.6261233 -1.549051,-4.8249137 -4.318787,-4.8892977 z M 3.51709,6.4086213 c -0.05953,-8.3e-5 -0.12009,5.81e-4 -0.181577,0.0023 -2.02296,0.05346 -3.22332405,1.275121 -3.22332405,2.8303384 0,1.3254533 0.91035705,2.1649933 2.32678505,2.7008023 1.038084,0.404244 1.452296,0.738667 1.452296,1.31822 0,0.608026 -0.478711,1.000098 -1.376098,0.98441 C 1.68942,14.230662 0.89654495,13.931604 0.38439295,13.638839 L -4.9999998e-8,15.336264 C 0.47255795,15.632599 1.425142,15.928947 2.400389,15.954762 c 2.388356,0.0635 3.533639,-1.246063 3.533141,-2.823691 0,-1.327197 -0.738791,-2.191826 -2.288363,-2.79678 C 2.528061,9.8868837 2.044854,9.6303467 2.044854,9.0426587 c 0,-0.478285 0.406238,-0.8957294 1.251912,-0.9095084 0.853559,-0.01444 1.478923,0.2380004 1.833446,0.4142244 L 5.577508,6.8262783 C 5.084058,6.6030163 4.410048,6.4100613 3.51709,6.4086503 Z m 7.834257,1.530439 c 1.471711,-0.02523 2.302467,1.4456864 2.302467,3.2356457 0,1.920945 -0.8597,3.3186 -2.317383,3.2932 -1.4209109,-0.02548 -2.2751689,-1.432288 -2.2604769,-3.250885 0,-1.7902923 0.825845,-3.2528097 2.2753929,-3.2779607 z"
   style="fill:#000000;fill-opacity:1;stroke:none;stroke-width:0.62745327;stroke-linecap:round;stroke-linejoin:round;stroke-miterlimit:4;stroke-dasharray:none;stroke-opacity:0" /><path
   d="m 504.20231,-592.93094 c 41.913,0 74.714,-14.977 74.714,-34.093 v -21.511 c 0,-3.059 -0.886,-6.165 -2.669,-9.207 l -0.073,-0.122 c 1.74,-2.926 2.742,-6.006 2.742,-9.218 v -21.51 c 0,-3.059 -0.886,-6.165 -2.669,-9.216 l -0.231,-0.388 c 1.846,-3.014 2.9,-6.188 2.9,-9.51 v -21.508 c 0,-2.911 -0.807,-5.875 -2.415,-8.807 l -0.185,-0.34 c 0.475,-1.308 0.807,-2.647 0.807,-4.065 0,-17.384 -37.568,-26.768 -72.921,-26.768 -35.322,0 -72.879,9.384 -72.879,26.768 0,1.418 0.332,2.763 0.812,4.071 l -0.189,0.34 c -1.614,2.932 -2.415,5.896 -2.415,8.807 v 21.508 c 0,3.312 1.044,6.491 2.89,9.497 l -0.243,0.412 c -1.761,3.056 -2.646,6.152 -2.646,9.21 v 21.505 c 0,3.206 0.985,6.28 2.731,9.207 l -0.085,0.138 c -1.761,3.048 -2.646,6.153 -2.646,9.196 v 21.516 c -0.002,19.111 32.798,34.088 74.67,34.088 z m -66.678,-132.68 c 11.981,10.156 39.772,15.417 66.678,15.417 26.947,0 54.717,-5.266 66.714,-15.423 v 17.906 c 0,12.34 -27.38,26.091 -66.714,26.091 -39.298,0 -66.678,-13.751 -66.678,-26.091 z m 0,38.296 c 12.266,11.227 37.494,18.398 66.678,18.398 29.225,0 54.453,-7.172 66.714,-18.409 v 20.244 c 0,12.34 -27.38,26.093 -66.714,26.093 -39.298,0 -66.678,-13.753 -66.678,-26.093 z m 0,40.057 c 12.266,11.232 37.494,18.404 66.678,18.404 29.225,0 54.453,-7.172 66.714,-18.41 v 20.245 c 0,12.34 -27.38,26.088 -66.714,26.088 -39.298,0 -66.678,-13.748 -66.678,-26.088 z"
   id="path6" /></svg>