<?xml version="1.0" encoding="UTF-8"?>
<svg width="24" height="24" version="1.1" viewBox="0 0 24 24" xmlns="http://www.w3.org/2000/svg">
 <path d="m5 3c-1.1046 0-2 0.89543-2 2v14c0 1.1046 0.89543 2 2 2h4.3047c0.27351 0 0.44531-0.22558 0.44531-0.47461v-1.5605c-2.493 0.55341-3.0234-1.2344-3.0234-1.2344-0.414-1.0699-1-1.3574-1-1.3574-0.819-0.57186 0.0625-0.55273 0.0625-0.55274 0.9 0.064565 1.3789 0.95117 1.3789 0.95117 0.783 1.402 2.1042 0.98699 2.6172 0.76562 0.081-0.59952 0.31636-1.0057 0.56836-1.2363-1.998-0.23059-4.0957-1.0249-4.0957-4.5391 0-1.0238 0.34273-1.8432 0.92773-2.498-0.09-0.23059-0.40516-1.1904 0.089844-2.4355 0 0 0.75561-0.25037 2.4746 0.93945 0.711-0.20292 1.485-0.30273 2.25-0.30273 0.765 0 1.539 0.099818 2.25 0.30273 1.719-1.1898 2.4746-0.93945 2.4746-0.93945 0.495 1.2452 0.17984 2.205 0.089844 2.4355 0.585 0.65486 0.92774 1.4742 0.92774 2.498 0 3.5234-2.1063 4.2987-4.1133 4.5293 0.324 0.28593 0.62109 0.84925 0.62109 1.707v2.5273c0 0.2179 0.11026 0.47031 0.44531 0.47461h4.3047c1.1046 0 2-0.89543 2-2v-14c0-1.1046-0.89543-2-2-2h-14z"/>
</svg>
