<?xml version="1.0" encoding="UTF-8"?>
<svg width="216.89" height="260" version="1.1" viewBox="0 0 216.89 260" xmlns="http://www.w3.org/2000/svg" xmlns:cc="http://creativecommons.org/ns#" xmlns:dc="http://purl.org/dc/elements/1.1/" xmlns:rdf="http://www.w3.org/1999/02/22-rdf-syntax-ns#">
 <title>nederland</title>
 <metadata>image/svg+xmlNetherlands MapFeb  2 21:42:31 EST 2006Peter Lieverdinkhttp://en.wikipedia.org/wiki/Image:Netherlands_map_large.pngnl-NLmapnetherlandsOpenClipartThis work is hereby released into the Public Domain. To view a copy of the public domain dedication, visit http://creativecommons.org/licenses/publicdomain/ or send a letter to Creative Commons, 543 Howard Street, 5th Floor, San Francisco, California, 94105, USA.Peter Lieverdink
  <rdf:RDF>
   <cc:Work rdf:about="">
    <dc:format>image/svg+xml</dc:format>
    <dc:type rdf:resource="http://purl.org/dc/dcmitype/StillImage"/>
    <dc:title>nederland</dc:title>
   </cc:Work>
  </rdf:RDF>
 </metadata>
 <g transform="translate(-4.7551)">
  <rect x="4.7553" y="198.42" width="216.89" height="21.147" rx="9.5631" ry="10" fill="#21262d" stroke-linecap="round" stroke-linejoin="round" stroke-width="40.938" style="paint-order:fill markers stroke"/>
  <text x="14.919529" y="212.24492" fill="#71df83" font-family="Consolas" font-size="13.268px" letter-spacing="0px" stroke-width=".27038" word-spacing="0px" style="line-height:1.25" xml:space="preserve"><tspan x="14.919529" y="212.24492" fill="#71df83" font-family="Consolas" font-size="13.268px" stroke-width=".27038">&lt;string&gt;<tspan fill="#ffffff" font-size="13.268px" stroke-width=".27038">AiU...O1sX</tspan>&lt;/string&gt;</tspan></text>
  <rect x="4.7551" y="174.79" width="216.89" height="21.147" rx="9.5631" ry="10" fill="#21262d" stroke-linecap="round" stroke-linejoin="round" stroke-width="40.938" style="paint-order:fill markers stroke"/>
  <g letter-spacing="0px" word-spacing="0px">
   <text x="11.518319" y="188.62297" fill="#ff7b72" font-family="Consolas" font-size="13.268px" stroke-width=".35113" style="line-height:1.25" xml:space="preserve"><tspan x="11.518319" y="188.62297" font-family="Consolas">string <tspan fill="#cba8f1" font-size="13.268px" stroke-width=".35113">secret</tspan> = <tspan fill="#a5d6ff" font-size="13.268px" stroke-width=".35113">"AiU...O1sX"</tspan></tspan></text>
   <text transform="matrix(.50531 0 0 .50531 -277.44 84.462)" fill="#512c1b" font-family="Rockwell" font-size="79.159px" font-weight="bold" style="line-height:1.25;shape-inside:url(#rect1656);white-space:pre" xml:space="preserve"/>
   <text transform="matrix(.50531 0 0 .50531 -277.44 84.462)" fill="#512c1b" font-family="Rockwell" font-size="79.159px" font-weight="bold" style="line-height:1.25;shape-inside:url(#rect1662);white-space:pre" xml:space="preserve"/>
  </g>
  <text x="197.82877" y="155.55656" fill="#ff7b38" font-family="'Rubrik SemiBold'" font-size="28.676px" letter-spacing="1.613px" stroke-linecap="round" stroke-linejoin="round" stroke-width="3.0547" word-spacing="0px" style="line-height:1.25;paint-order:stroke markers fill" xml:space="preserve"><tspan x="113.34242" y="155.55656" fill="#ff7b38" font-family="'Google Sans'" font-size="28.676px" font-weight="bold" stroke-linecap="round" stroke-linejoin="round" stroke-width="3.0547" text-align="center" text-anchor="middle" style="paint-order:stroke markers fill">apk-secrets</tspan></text>
  <path d="m112.91 42.457 0.25376 76.825 13.068-2.0207 10.89-7.6788 6.1255-12.259 1.6334-10.056-0.20456-35.847z" fill="#ffb59a"/>
  <path d="m113.24 42.457-30.972 8.9629-0.29997 40.972 3.2331 10.508 6.8705 11.047 9.6995 4.9844 11.72 1.3472z" fill="#ffd6c7"/>
  <text x="14.721371" y="212.50896" fill="#71df83" font-family="Consolas" font-size="13.268px" letter-spacing="0px" stroke-width=".27038" word-spacing="0px" style="line-height:1.25" xml:space="preserve"><tspan x="14.721371" y="212.50896" fill="#71df83" font-family="Consolas" font-size="13.268px" stroke-width=".27038">&lt;string&gt;<tspan fill="#ffffff" font-size="13.268px" stroke-width=".27038">AiU...O1sX</tspan>&lt;/string&gt;</tspan></text>
  <text x="11.320154" y="188.9389" fill="#ff7b72" font-family="Consolas" font-size="13.268px" letter-spacing="0px" stroke-width=".35113" word-spacing="0px" style="line-height:1.25" xml:space="preserve"><tspan x="11.320154" y="188.9389" font-family="Consolas">string <tspan fill="#cba8f1" font-size="13.268px" stroke-width=".35113">secret</tspan> = <tspan fill="#a5d6ff" font-size="13.268px" stroke-width=".35113">"AiU...O1sX"</tspan></tspan></text>
 </g>
 <g transform="translate(-4.7551)" fill="#ff7b38">
  <path d="m113.4 66.031a20.853 19.347 0 0 0-20.854 19.346 20.853 19.347 0 0 0 0.03711 0.47852c-0.02302 0.21382-0.03711 0.43025-0.03711 0.65039v0.2168h41.705v-0.2168c0-0.22014-0.0141-0.43657-0.0371-0.65039a20.853 19.347 0 0 0 0.0371-0.47852 20.853 19.347 0 0 0-20.852-19.346zm-20.854 22.377v21.113l5.0703 7.209 10.467 4.0606h13.012l5.4277-1.1699 7.7285-6.957v-24.256h-41.705z"/>
  <g transform="matrix(-.22915 0 0 .23032 113.4 75.933)" stroke-width="7.2">
   <rect transform="rotate(29)" x="14" y="-86" width="13" height="86" rx="7.9696" ry="7.9696"/>
   <text x="-286.83725" y="301.96564" font-family="Rockwell" font-size="79.159px" font-weight="bold" letter-spacing="0px" stroke-width="14.249" word-spacing="0px" style="line-height:1.25" xml:space="preserve"><tspan x="-286.83725" y="301.96564" fill="#ff7b38" stroke-width="14.249"/></text>
   <text x="-546.81616" y="519.92773" font-family="Rockwell" font-size="79.159px" font-weight="bold" letter-spacing="0px" stroke-width="14.249" word-spacing="0px" style="line-height:1.25" xml:space="preserve"><tspan x="-546.81616" y="519.92773" fill="#ff7b38" stroke-width="14.249"/></text>
  </g>
  <g id="a" transform="matrix(.22915 0 0 .23032 113.4 75.933)" stroke-width="7.2">
   <rect transform="rotate(29)" x="14" y="-86" width="13" height="86" rx="7.9696" ry="7.9696"/>
   <text x="-286.83725" y="301.96564" font-family="Rockwell" font-size="79.159px" font-weight="bold" letter-spacing="0px" stroke-width="14.249" word-spacing="0px" style="line-height:1.25" xml:space="preserve"><tspan x="-286.83725" y="301.96564" fill="#ff7b38" stroke-width="14.249"/></text>
   <text x="-546.81616" y="519.92773" font-family="Rockwell" font-size="79.159px" font-weight="bold" letter-spacing="0px" stroke-width="14.249" word-spacing="0px" style="line-height:1.25" xml:space="preserve"><tspan x="-546.81616" y="519.92773" fill="#ff7b38" stroke-width="14.249"/></text>
  </g>
 </g>
 <g transform="matrix(.22915 0 0 .22915 108.64 79.491)" fill="#ffdadb" stroke="#ffdadb" stroke-width="3.6511">
  <circle cx="-46.346" cy="-8.6911" r="4"/>
  <circle cx="46.346" cy="-8.6911" r="4"/>
 </g>
 <path d="m108.64 42.457-31.13 8.963 0.99575 36.704s1.1618 33.321 30.134 33.321c28.972 0 30.134-33.321 30.134-33.321l0.99581-36.704z" fill="none" stroke="#ff7b38" stroke-linecap="round" stroke-linejoin="round" stroke-width="3.9831" style="paint-order:normal"/>
 <path d="m116.75 110.23c-9e-3 -0.11332-0.0591-0.22228-0.14243-0.30357l-7.178-7.178c0.28243-0.66528 0.43152-1.3858 0.43152-2.1303 0-1.4551-0.5676-2.8243-1.5948-3.854-1.0287-1.0277-2.3969-1.5947-3.8528-1.5947-1.4567 0-2.8224 0.56718-3.8528 1.5956-2.1259 2.1248-2.1264 5.5807-3.1e-4 7.7053 1.0303 1.0306 2.3965 1.5981 3.8525 1.5981 0.74473 0 1.4634-0.15027 2.1303-0.43306l2.3581 2.3599c0.0981 0.0969 0.22745 0.14831 0.36708 0.14377l1.2851-0.0451-0.0423 1.2883c-6e-3 0.13589 0.0448 0.26815 0.14355 0.3649 0.0949 0.0967 0.22826 0.14925 0.36359 0.14376l1.2898-0.0441-0.046 1.2869c-6e-3 0.13603 0.0485 0.26853 0.14311 0.36529 0.0981 0.0967 0.2124 0.14868 0.36708 0.14395l1.2866-0.0438-0.0429 1.2871c-7e-3 0.14274 0.0522 0.28004 0.15462 0.3775 0.0941 0.0856 0.21159 0.13174 0.33542 0.13174 0.018 0 0.0361-5e-4 0.0541-2e-3l1.9729-0.2191c0.26663-0.0291 0.4608-0.26698 0.43785-0.53418zm-12.995-10.27c-0.60604 0.60536-1.5857 0.60536-2.1905 0-0.6056-0.60554-0.6056-1.5851 0-2.19 0.60473-0.60497 1.5841-0.60554 2.1905-1.9e-4 0.60479 0.60492 0.60435 1.5851 0 2.1902zm11.311 10.434c-0.072 0.072-0.16849 0.10795-0.26228 0.10795-0.0937 0-0.19032-0.036-0.26228-0.10795l-6.1073-6.1091c0.17004-0.18335 0.32466-0.37635 0.4651-0.57927l6.1667 6.1655c0.14399 0.14402 0.14399 0.37898 7e-5 0.52293z" fill="#ffd6c7" stroke-width=".06395"/>
</svg>
