<?xml version="1.0" encoding="UTF-8"?>
<svg width="832.41" height="423.23" version="1.1" viewBox="0 0 220.24 111.98" xmlns="http://www.w3.org/2000/svg">
 <g transform="translate(219.43 83.61)">
  <rect x="-219.43" y="-83.61" width="220.24" height="78.89" rx="5.2916" ry="5.2916" fill="#fff" stroke="#949494" stroke-linecap="square" stroke-linejoin="round" stroke-width=".53" paint-order="stroke markers fill"/>
  <text x="-210.03999" y="-66.839996" fill="#0b69ff" font-family="'Google Sans'" font-size="7.76px" font-weight="bold" letter-spacing="0" stroke-width=".2" word-spacing="0" style="line-height:1.25"><tspan x="-210.03999" y="-66.839996" font-family="'Google Sans'" font-weight="bold">AnimatedBottomBar</tspan></text>
  <text x="-137.22743" y="-15.54" font-family="Rockwell" font-size="6.35px" font-weight="bold" letter-spacing="0" stroke-width=".26" word-spacing="0" style="line-height:1.5"><tspan x="-137.22743" y="-15.54" font-family="'Google Sans'" font-weight="normal">62</tspan></text>
  <text x="-210.01884" y="-52.588795" font-family="'Google Sans'" font-size="6.35px" letter-spacing="0px" stroke-width=".26458" word-spacing="0px" style="line-height:1.25" xml:space="preserve"><tspan x="-210.01884" y="-52.588795">A customizable and easy to use BottomBar navigation view with sleek</tspan><tspan x="-210.01884" y="-44.572041">animations, with support for ViewPager, ViewPager2, NavController, and</tspan><tspan x="-210.01884" y="-36.555286" dy="0 0 0 0">badges.</tspan></text>
  <path d="m-144.6-20.52a0.375 0.375 0 1 1-0.75 0 0.375 0.375 0 0 1 0.75 0zm0 1.06a1.12 1.12 0 1 0-0.75 0v0.44a1.12 1.12 0 0 0 1.12 1.13h0.75v1.06a1.13 1.13 0 1 0 0.75 0v-1.06h0.75a1.12 1.12 0 0 0 1.13-1.13v-0.44a1.12 1.12 0 1 0-0.75 0v0.44a0.37 0.37 0 0 1-0.38 0.38h-2.25a0.37 0.37 0 0 1-0.37-0.38zm1.87 3.7a0.375 0.375 0 1 1-0.75 0 0.375 0.375 0 0 1 0.75 0zm1.5-4.38a0.375 0.375 0 1 0 0-0.75 0.375 0.375 0 0 0 0 0.75zm-32.55-1.95a0.37 0.37 0 0 1 0.33 0.21l0.93 1.89 2.08 0.3a0.37 0.37 0 0 1 0.2 0.63l-1.5 1.47 0.36 2.07a0.37 0.37 0 0 1-0.54 0.4l-1.86-0.99-1.86 0.98a0.37 0.37 0 0 1-0.54-0.39l0.36-2.07-1.51-1.47a0.37 0.37 0 0 1 0.2-0.63l2.09-0.3 0.93-1.89a0.37 0.37 0 0 1 0.33-0.2zm0 1.21-0.68 1.39a0.37 0.37 0 0 1-0.28 0.2l-1.53 0.22 1.1 1.08a0.37 0.37 0 0 1 0.11 0.33l-0.26 1.53 1.37-0.72a0.37 0.37 0 0 1 0.34 0l1.37 0.72-0.26-1.53a0.37 0.37 0 0 1 0.1-0.33l1.11-1.07-1.53-0.23a0.37 0.37 0 0 1-0.28-0.2z" fill-rule="evenodd"/>
  <text x="-202.98177" y="-15.460625" font-family="Arial" font-size="6.35px" letter-spacing="0" stroke-width=".26" word-spacing="0" style="line-height:1.25"><tspan x="-202.98177" y="-15.460625" font-family="'Google Sans'">Kotlin</tspan></text>
  <g stroke-linecap="round" stroke-linejoin="round">
   <path d="m-155.64-15.314-0.51757 0.92578c2.137 1.1936 3.2148 3.5472 3.5466 6.3665 0.33172 2.8193 0.0707 6.1812-0.043 9.4258s-0.0932 6.3772 0.93555 8.8164 3.1832 4.1088 6.9023 4.1895l0.0234-1.0605c-3.4309-0.07438-5.0483-1.4049-5.9492-3.541-0.90093-2.1361-0.96606-5.1555-0.85352-8.3672 0.11255-3.2117 0.38758-6.6094 0.0371-9.5879-0.35046-2.9785-1.5638-5.7609-4.0817-7.1673z" color="#000000" fill="#0b69ff" stroke="#fff" stroke-width="1.1906" style="paint-order:stroke fill markers"/>
   <circle cx="-208.08" cy="-17.304" r="1.8387" fill="#d18b00" stroke-width="7.9375" style="paint-order:fill markers stroke"/>
   <rect x="-169.48" y="-22.43" width="13.86" height="8.98" ry="3.21" fill="#0b69ff" fill-opacity=".25" stroke="#0b69ff" stroke-width=".81" paint-order="stroke markers fill"/>
  </g>
  <text x="-167.7274" y="-15.66" font-family="'Google Sans'" font-size="6.35px" letter-spacing="0" stroke-width=".26" word-spacing="0" style="line-height:1.5"><tspan x="-167.7274" y="-15.66" font-family="'Google Sans'">894</tspan></text>
  <rect x="-146.07" y="-8.18" width="95.686" height="36.549" rx="5.2916" ry="5.2916" fill="#1a1e24" stroke="#949494" stroke-linecap="square" stroke-linejoin="round" stroke-width=".53" paint-order="stroke markers fill"/>
  <text x="-140.35641" y="0.40398327" font-family="Consolas" font-size="5.95px" letter-spacing="0px" stroke-width=".26458" word-spacing="0px" style="line-height:1.25" xml:space="preserve"><tspan x="-140.35641" y="0.40398327"><tspan fill="#79c0ff">&lt;</tspan><tspan fill="#76cb67">GitHubRepo</tspan></tspan><tspan x="-140.35641" y="7.8414831"><tspan fill="#79c0ff"><tspan fill="#79c0ff" fill-opacity="0">..</tspan>user=</tspan><tspan fill="#a1d6ff">"Droppers"</tspan></tspan><tspan x="-140.35641" y="15.278983"><tspan fill="#79c0ff"><tspan fill="#79c0ff" fill-opacity="0">..</tspan>repo=</tspan><tspan fill="#a1d6ff">"AnimatedBottomBar"</tspan></tspan><tspan x="-140.35641" y="22.716482"><tspan fill="#79c0ff"><tspan fill="#79c0ff" fill-opacity="0">..</tspan>data=</tspan><tspan fill="#a1d6ff">"stars"</tspan> <tspan fill="#79c0ff">/&gt;</tspan></tspan></text>
 </g>
</svg>
