<?xml version="1.0" encoding="UTF-8" standalone="no"?>
<svg
   id="Layer_1"
   data-name="Layer 1"
   viewBox="0 0 511.46 512.96"
   version="1.1"
   sodipodi:docname="time-range-picker.svg"
   inkscape:version="1.1 (c68e22c387, 2021-05-23)"
   xmlns:inkscape="http://www.inkscape.org/namespaces/inkscape"
   xmlns:sodipodi="http://sodipodi.sourceforge.net/DTD/sodipodi-0.dtd"
   xmlns:xlink="http://www.w3.org/1999/xlink"
   xmlns="http://www.w3.org/2000/svg"
   xmlns:svg="http://www.w3.org/2000/svg">
  <sodipodi:namedview
     id="namedview511"
     pagecolor="#505050"
     bordercolor="#eeeeee"
     borderopacity="1"
     inkscape:pageshadow="0"
     inkscape:pageopacity="0"
     inkscape:pagecheckerboard="0"
     showgrid="false"
     inkscape:zoom="1.07"
     inkscape:cx="234.11215"
     inkscape:cy="321.49533"
     inkscape:window-width="1500"
     inkscape:window-height="938"
     inkscape:window-x="-6"
     inkscape:window-y="-6"
     inkscape:window-maximized="1"
     inkscape:current-layer="Layer_1" />
  <defs
     id="defs12">
    <linearGradient
       inkscape:collect="always"
       id="linearGradient48782">
      <stop
         style="stop-color:#000000;stop-opacity:1;"
         offset="0"
         id="stop48778" />
      <stop
         style="stop-color:#000000;stop-opacity:0;"
         offset="1"
         id="stop48780" />
    </linearGradient>
    <linearGradient
       inkscape:collect="always"
       xlink:href="#linearGradient48782"
       id="linearGradient48784"
       x1="232.11239"
       y1="192.27277"
       x2="316.68124"
       y2="192.27277"
       gradientUnits="userSpaceOnUse" />
  </defs>
  <text
     xml:space="preserve"
     style="font-style:normal;font-variant:normal;font-weight:bold;font-stretch:normal;font-size:26.6667px;line-height:1.25;font-family:'Google Sans';-inkscape-font-specification:'Google Sans Bold';letter-spacing:0px;word-spacing:0px;fill:#000000;fill-opacity:1;stroke-width:0.578826"
     x="245.12547"
     y="462.34344"
     id="text50560"><tspan
       sodipodi:role="line"
       id="tspan50558"
       x="245.12547"
       y="462.34344"
       style="font-style:normal;font-variant:normal;font-weight:bold;font-stretch:normal;font-size:26.6667px;font-family:'Google Sans';-inkscape-font-specification:'Google Sans Bold';fill:#000000;fill-opacity:1;stroke-width:0.578826">12</tspan></text>
  <text
     xml:space="preserve"
     style="font-style:normal;font-variant:normal;font-weight:bold;font-stretch:normal;font-size:26.6667px;line-height:1.25;font-family:'Google Sans';-inkscape-font-specification:'Google Sans Bold';letter-spacing:0px;word-spacing:0px;fill:#000000;fill-opacity:1;stroke-width:0.578826"
     x="447.37231"
     y="268.26035"
     id="text50564"><tspan
       sodipodi:role="line"
       id="tspan50562"
       x="447.37231"
       y="268.26035"
       style="font-style:normal;font-variant:normal;font-weight:bold;font-stretch:normal;font-size:26.6667px;font-family:'Google Sans';-inkscape-font-specification:'Google Sans Bold';fill:#000000;fill-opacity:1;stroke-width:0.578826">6</tspan></text>
  <text
     xml:space="preserve"
     style="font-style:normal;font-variant:normal;font-weight:bold;font-stretch:normal;font-size:26.6667px;line-height:1.25;font-family:'Google Sans';-inkscape-font-specification:'Google Sans Bold';letter-spacing:0px;word-spacing:0px;fill:#000000;fill-opacity:1;stroke-width:0.578826"
     x="249.25571"
     y="73.683075"
     id="text50568"><tspan
       sodipodi:role="line"
       id="tspan50566"
       x="249.25571"
       y="73.683075"
       style="font-style:normal;font-variant:normal;font-weight:bold;font-stretch:normal;font-size:26.6667px;font-family:'Google Sans';-inkscape-font-specification:'Google Sans Bold';fill:#000000;fill-opacity:1;stroke-width:0.578826">0</tspan></text>
  <g
     id="g30142"
     style="stroke:#000000;stroke-width:3;stroke-miterlimit:4;stroke-dasharray:none;stroke-opacity:1"
     transform="translate(0,1.4400005)">
    <path
       d="m 395,396.36 4.36,4.36"
       style="fill:none;stroke:#000000;stroke-width:3;stroke-linecap:round;stroke-miterlimit:4;stroke-dasharray:none;stroke-opacity:1"
       id="path390" />
    <path
       d="m 203.53,453.19 1.6,-6"
       style="fill:none;stroke:#000000;stroke-width:3;stroke-linecap:round;stroke-miterlimit:4;stroke-dasharray:none;stroke-opacity:1"
       id="path346" />
    <path
       d="m 306.87,67.52 1.6,-6"
       style="fill:none;stroke:#000000;stroke-width:3;stroke-linecap:round;stroke-miterlimit:4;stroke-dasharray:none;stroke-opacity:1"
       id="path348" />
    <path
       d="m 154.64,432.96 3.08,-5.34"
       style="fill:none;stroke:#000000;stroke-width:3;stroke-linecap:round;stroke-miterlimit:4;stroke-dasharray:none;stroke-opacity:1"
       id="path352" />
    <path
       d="m 354.28,87.15 3.08,-5.34"
       style="fill:none;stroke:#000000;stroke-width:3;stroke-linecap:round;stroke-miterlimit:4;stroke-dasharray:none;stroke-opacity:1"
       id="path354" />
    <path
       d="M 112.65,400.72 117,396.36"
       style="fill:none;stroke:#000000;stroke-width:3;stroke-linecap:round;stroke-miterlimit:4;stroke-dasharray:none;stroke-opacity:1"
       id="path358" />
    <path
       d="m 395,118.39 4.36,-4.36"
       style="fill:none;stroke:#000000;stroke-width:3;stroke-linecap:round;stroke-miterlimit:4;stroke-dasharray:none;stroke-opacity:1"
       id="path360" />
    <path
       d="m 80.43,358.74 5.35,-3.09"
       style="fill:none;stroke:#000000;stroke-width:3;stroke-linecap:round;stroke-miterlimit:4;stroke-dasharray:none;stroke-opacity:1"
       id="path364" />
    <path
       d="m 426.22,159.1 5.35,-3.09"
       style="fill:none;stroke:#000000;stroke-width:3;stroke-linecap:round;stroke-miterlimit:4;stroke-dasharray:none;stroke-opacity:1"
       id="path366" />
    <path
       d="m 60.18,309.85 6,-1.6"
       style="fill:none;stroke:#000000;stroke-width:3;stroke-linecap:round;stroke-miterlimit:4;stroke-dasharray:none;stroke-opacity:1"
       id="path370" />
    <path
       d="m 445.86,206.5 6,-1.59"
       style="fill:none;stroke:#000000;stroke-width:3;stroke-linecap:round;stroke-miterlimit:4;stroke-dasharray:none;stroke-opacity:1"
       id="path372" />
    <path
       d="m 60.18,204.96 6,1.59"
       style="fill:none;stroke:#000000;stroke-width:3;stroke-linecap:round;stroke-miterlimit:4;stroke-dasharray:none;stroke-opacity:1"
       id="path376" />
    <path
       d="m 445.86,308.25 6,1.6"
       style="fill:none;stroke:#000000;stroke-width:3;stroke-linecap:round;stroke-miterlimit:4;stroke-dasharray:none;stroke-opacity:1"
       id="path378" />
    <path
       d="m 80.43,156.01 5.35,3.09"
       style="fill:none;stroke:#000000;stroke-width:3;stroke-linecap:round;stroke-miterlimit:4;stroke-dasharray:none;stroke-opacity:1"
       id="path382" />
    <path
       d="m 426.22,355.65 5.35,3.09"
       style="fill:none;stroke:#000000;stroke-width:3;stroke-linecap:round;stroke-miterlimit:4;stroke-dasharray:none;stroke-opacity:1"
       id="path384" />
    <path
       d="m 112.65,114.03 4.36,4.36"
       style="fill:none;stroke:#000000;stroke-width:3;stroke-linecap:round;stroke-miterlimit:4;stroke-dasharray:none;stroke-opacity:1"
       id="path388" />
    <path
       d="m 154.64,81.81 3.08,5.34"
       style="fill:none;stroke:#000000;stroke-width:3;stroke-linecap:round;stroke-miterlimit:4;stroke-dasharray:none;stroke-opacity:1"
       id="path394" />
    <path
       d="m 354.28,427.6 3.08,5.34"
       style="fill:none;stroke:#000000;stroke-width:3;stroke-linecap:round;stroke-miterlimit:4;stroke-dasharray:none;stroke-opacity:1"
       id="path396" />
    <path
       d="m 203.53,61.56 1.6,6"
       style="fill:none;stroke:#000000;stroke-width:3;stroke-linecap:round;stroke-miterlimit:4;stroke-dasharray:none;stroke-opacity:1"
       id="path400" />
    <path
       d="m 306.87,447.24 1.6,6"
       style="fill:none;stroke:#000000;stroke-width:3;stroke-linecap:round;stroke-miterlimit:4;stroke-dasharray:none;stroke-opacity:1"
       id="path402" />
  </g>
  <ellipse
     cx="256"
     cy="258.37"
     rx="234.98"
     ry="235.78"
     style="fill:none;stroke:#9196c5;stroke-width:14;stroke-miterlimit:10;stroke-dasharray:none;stroke-opacity:1"
     id="ellipse16" />
  <path
     id="ellipse26000"
     style="fill:none;stroke:#7151d9;stroke-width:14;stroke-miterlimit:10;stroke-dasharray:none;stroke-opacity:1"
     d="M 415,431.94586 C 463.41439,387.30233 490.97225,324.34684 490.98047,258.36969 490.98008,128.15208 385.77578,22.590131 256,22.590391"
     sodipodi:nodetypes="ccc" />
  <path
     d="M 266.61,56.400001"
     style="fill:#ffffff;fill-opacity:1;stroke:#3d5172;stroke-width:2px;stroke-linecap:round;stroke-linejoin:round"
     id="path18" />
  <path
     d="M 254.71,57.14"
     style="fill:none"
     id="path468" />
  <text
     style="font-style:normal;font-variant:normal;font-weight:normal;font-stretch:normal;font-size:23.8357px;font-family:'Google Sans';-inkscape-font-specification:'Google Sans';fill:url(#linearGradient48784);fill-opacity:1;stroke-width:1.12654"
     id="text470"
     x="231.39732"
     y="198.42238"><tspan
       style="font-style:normal;font-variant:normal;font-weight:normal;font-stretch:normal;font-family:'Google Sans';-inkscape-font-specification:'Google Sans';fill:#000000;fill-opacity:1"
       id="tspan48786">Sleep at</tspan></text>
  <text
     style="font-style:normal;font-variant:normal;font-weight:normal;font-stretch:normal;font-size:33.4875px;font-family:'Google Sans';-inkscape-font-specification:'Google Sans';fill:#000000;fill-opacity:1;stroke-width:1.12654"
     id="text482"
     x="238.02946"
     y="241.28703">0:00</text>
  <text
     style="font-style:normal;font-variant:normal;font-weight:normal;font-stretch:normal;font-size:33.4875px;font-family:'Google Sans';-inkscape-font-specification:'Google Sans';letter-spacing:0.0200069em;fill:#000000;fill-opacity:1;stroke-width:1.12654"
     id="text484"
     x="238.56497"
     y="334.05722">9:00</text>
  <path
     d="m 205.96915,200.17061 -3.61613,2.76594 1.30363,4.37561 -3.75215,-2.58455 -3.76348,2.58455 1.30361,-4.37561 -3.61612,-2.76594 4.53432,-0.13601 1.519,-4.28495 1.50766,4.28495 4.53431,0.13601 m 4.99909,9.87349 -2.33517,1.77973 0.83884,2.83393 -2.42584,-1.67769 -2.4372,1.67769 0.85018,-2.83393 -2.30117,-1.79107 2.9473,-0.0794 0.98622,-2.77727 0.98622,2.77727 2.93597,0.0794 m -3.25337,7.07354 c 1.19025,-0.11339 2.45986,1.56434 1.70037,2.64125 a 12.106633,12.106633 0 0 1 -1.54167,1.81372 14.283836,14.283836 0 0 1 -20.2004,-20.20039 13.829674,13.829674 0 0 1 1.81374,-1.55301 c 1.06556,-0.74816 2.7546,0.52145 2.64123,1.70037 a 14.317114,14.317114 0 0 0 15.58673,15.59806 m -2.34651,2.87929 a 17.003698,17.003698 0 0 1 -16.13085,-16.13084 11.426485,11.426485 0 0 0 16.13085,16.13084 z"
     style="fill:#000000;fill-opacity:1;stroke-width:1.13358"
     id="path486" />
  <path
     d="m 198.08567,316.48125 a 10.351234,10.351234 0 1 1 10.35124,-10.35124 10.351234,10.351234 0 0 1 -10.35124,10.35124 m 0,-23.72734 a 13.353093,13.353093 0 1 0 13.35309,13.34159 13.341591,13.341591 0 0 0 -13.35309,-13.34159 m 0.74759,5.93471 H 196.602 v 8.89057 l 7.05034,4.23251 1.15014,-1.82873 -5.92321,-3.50791 v -7.78644 m -6.90083,-6.84331 -1.89773,-2.30027 -6.83181,5.75068 1.92074,2.30028 6.8088,-5.75069 m 20.944,3.45041 -6.82031,-5.75068 -1.92073,2.30027 6.8203,5.75069 z"
     style="fill:#000000;fill-opacity:1;stroke-width:1.15014"
     id="path488" />
  <circle
     cx="422.16"
     cy="425.09"
     style="fill:#7151d9;fill-opacity:1;stroke-width:1.11497"
     id="circle502"
     r="22.5" />
  <circle
     cx="255.32001"
     cy="22.5"
     r="22.5"
     style="fill:#7151d9;fill-opacity:1;stroke-width:1.11497"
     id="circle506" />
  <path
     style="fill:none;fill-opacity:1;stroke:#444973;stroke-width:2px;stroke-linecap:round;stroke-linejoin:round;stroke-opacity:1"
     d="m 234.81055,57.199766 0.63867,6.140625 z m 42.3789,0 -0.63867,6.140625 z m -52.93945,1.390625 1,6.089843 z m 63.46094,0 -1,6.089843 z m 10.43945,1.929687 -1.28125,6 z m -84.30078,0.0293 1.28125,5.999999 z m -20.5,5.460936 1.91016,5.869141 z m 125.30078,0 -1.91016,5.869141 z m -135.30078,3.548829 2.21094,5.75 z m 145.30078,0 -2.21094,5.75 z m -155.11133,4.060547 2.51172,5.630859 z m 164.92188,0 L 336,79.250547 Z M 164,78.19 l 2.75977,5.490234 z m 184,0 -2.80078,5.490234 z M 145.64062,88.799375 149,93.969297 Z m 220.76954,0 -3.35938,5.169922 z m -229.57032,6 3.63086,5 z m 238.32032,0.0098 -3.63086,5 z m -246.74024,6.460935 3.88086,4.78906 z m 255.16016,0 -3.88086,4.78906 z m -263.23047,6.89062 4.13086,4.58985 z m 271.30078,0 -4.13086,4.58985 z m -286.30078,15.00977 4.58008,4.11914 z m 301.30078,0 -4.58008,4.11914 z m -308.201171,8.07031 4.800781,3.87891 z m 315.101561,0 -4.80078,3.87891 z M 92,139.6607 l 5,3.61914 z m 328,0 -5,3.61914 z m -334,8.74024 5.150391,3.35937 z m 340,0 -5.16992,3.35937 z m -350.630859,18.3789 5.5,2.80078 z m 361.261719,0 -5.5,2.80078 z m -365.830079,9.6211 5.638672,2.46875 z m 370.398439,0 -5.63867,2.50976 z m 4.06055,9.76953 -5.75977,2.23047 z M 66.740234,186.19 72.5,188.40094 Z m -3.541015,9.98047 5.861328,1.91015 z m 385.601561,0 -5.86133,1.91015 z m -391.060546,20.5 6,1.2793 z m 396.560546,0 -6,1.2793 z m -398.531249,10.40039 6.089844,1 z m 400.460939,0.0293 -6.08985,1 z m -401.839845,10.52929 6.128906,0.64063 z m 403.218755,0 -6.12891,0.64063 z m -6.12891,41.73047 6.12891,0.65039 z m -390.960939,0.041 -6.128906,0.64844 z m 389.621089,10.1289 6.08985,1 z m -388.281245,0.0293 -6.089844,1 z m 1.880859,10.12109 -6,1.28907 z m 384.560546,0 6,1.28907 z m -379.240233,19.87891 -5.861328,1.90039 z m 373.878903,0 5.86133,1.90039 z M 72.5,329.26031 66.740234,331.4693 Z m 367,0 5.75977,2.20899 z m -363.060547,9.5 -5.638672,2.50977 z m 359.121097,0 5.63867,2.50977 z m -354.691409,9.28907 -5.5,2.80078 z m 350.261719,0 5.5,2.80078 z M 91.150391,365.86969 86,369.22906 Z m 329.679689,0 L 426,369.22906 Z M 97,374.40094 l -5,3.6289 z m 318,0 5,3.57812 z m -311.75,8.10937 -4.800781,3.89063 z m 305.5,0 4.80078,3.89063 z m -298.82031,7.83008 -4.58008,4.12891 z m 292.14062,0 4.58008,4.12891 z m -277.58984,14.54883 -4.13086,4.58008 z m 263.03906,0 4.13086,4.58008 z m -255.21875,6.68164 -3.88086,4.83008 z m 247.39844,0.0391 3.88086,4.79102 z m -8.16992,6.21094 3.63086,5 z m -231.0586,0.01 -3.63086,5 z m 8.5293,5.83008 -3.35938,5.17969 z m 214.05078,0 3.35938,5.17969 z m -196.29101,10.28907 -2.79883,5.5 z m 178.43945,0 2.80078,5.5 z m -169.14844,4.45117 -2.51172,5.63867 z m 159.94922,0 2.46094,5.61914 z m -150.43945,3.91992 -2.21094,5.75976 z m 140.8789,0 2.21094,5.75976 z m -131.17968,3.42969 -1.91016,5.86914 z m 121.48046,0 1.91016,5.86914 z m -101.60937,5.33007 -1.28125,6 z m 81.73828,0.0293 1.28125,6 z m -71.61914,1.83985 -1,6.09961 z m 61.46094,0 1,6.09961 z m -10.16016,1.32031 0.63867,6.13086 z m -41.10156,0.0293 -0.63867,6.13085 z"
     id="path20" />
  <path
     d="m 263.02962,13.170386 -3.19,2.44 1.15,3.86 -3.31,-2.279999 -3.32,2.279999 1.15,-3.859999 -3.19,-2.44 4,-0.12 1.34,-3.7800002 1.33,3.7800002 4,0.12 m 4.41,8.71 -2.06,1.57 0.74,2.5 -2.14,-1.48 -2.15,1.48 0.75,-2.5 -2.03,-1.58 2.6,-0.07 0.87,-2.45 0.87,2.45 2.59,0.07 m -2.87,6.24 c 1.05,-0.1 2.17,1.38 1.5,2.33 a 10.68,10.68 0 0 1 -1.36,1.6 12.600643,12.600643 0 0 1 -17.82,-17.82 12.2,12.2 0 0 1 1.6,-1.37 c 0.94,-0.66 2.43,0.46 2.33,1.5 a 12.63,12.63 0 0 0 13.75,13.76 m -2.07,2.54 a 15,15 0 0 1 -14.23,-14.23 10.08,10.08 0 0 0 14.23,14.23 z"
     style="fill:#ffffff"
     id="path486-9" />
  <path
     d="m 422.16,435.50499 a 9,9 0 1 1 9,-9 9,9 0 0 1 -9,9 m 0,-20.63 a 11.61,11.61 0 1 0 11.61,11.6 11.6,11.6 0 0 0 -11.61,-11.6 m 0.65,5.16 h -1.94 v 7.73 l 6.13,3.68 1,-1.59 -5.15,-3.05 v -6.77 m -6,-5.95 -1.65,-2 -5.94,5 1.67,2 5.92,-5 m 18.21,3 -5.93,-5 -1.67,2 5.93,5 z"
     style="fill:#ffffff"
     id="path488-4" />
  <text
     xml:space="preserve"
     style="font-style:normal;font-variant:normal;font-weight:bold;font-stretch:normal;font-size:26.6667px;line-height:1.25;font-family:'Google Sans';-inkscape-font-specification:'Google Sans Bold';letter-spacing:0px;word-spacing:0px;fill:#000000;fill-opacity:1;stroke-width:0.578826"
     x="49.367432"
     y="268.26035"
     id="text50556"><tspan
       sodipodi:role="line"
       id="tspan50554"
       x="49.367432"
       y="268.26035"
       style="font-style:normal;font-variant:normal;font-weight:bold;font-stretch:normal;font-size:26.6667px;font-family:'Google Sans';-inkscape-font-specification:'Google Sans Bold';fill:#000000;fill-opacity:1;stroke-width:0.578826">18</tspan></text>
  <text
     style="font-style:normal;font-variant:normal;font-weight:normal;font-stretch:normal;font-size:23.8357px;font-family:'Google Sans';-inkscape-font-specification:'Google Sans';fill:#000000;fill-opacity:1;stroke-width:1.12654"
     id="text60892"
     x="231.64764"
     y="290.96722"><tspan
       style="font-style:normal;font-variant:normal;font-weight:normal;font-stretch:normal;font-family:'Google Sans';-inkscape-font-specification:'Google Sans';fill:#000000;fill-opacity:1"
       id="tspan60890">Wake at</tspan></text>
</svg>
