<?xml version="1.0" encoding="UTF-8"?>
<svg preserveAspectRatio="xMaxYMin meet" version="1.0" viewBox="0 0 650.22 449.58" xmlns="http://www.w3.org/2000/svg" xmlns:cc="http://creativecommons.org/ns#" xmlns:dc="http://purl.org/dc/elements/1.1/" xmlns:rdf="http://www.w3.org/1999/02/22-rdf-syntax-ns#" xmlns:xlink="http://www.w3.org/1999/xlink">
 <metadata>
  <rdf:RDF>
   <cc:Work rdf:about="">
    <dc:format>image/svg+xml</dc:format>
    <dc:type rdf:resource="http://purl.org/dc/dcmitype/StillImage"/>
    <dc:title/>
   </cc:Work>
  </rdf:RDF>
 </metadata>
 <defs>
  <linearGradient id="bubble-top" x1="-709.58" x2="-709.58" y1="-591.8" y2="-169.55" gradientTransform="matrix(.98735 0 0 .98735 982.18 588.86)" gradientUnits="userSpaceOnUse" xlink:href="#bubble"/>
  <linearGradient id="bubble">
   <stop class="gradient-primary-start" stop-color="#6346bd" offset="0"/>
   <stop class="gradient-primary-stop" stop-color="#333b8c" offset="1"/>
  </linearGradient>
  <linearGradient id="bubble-bottom" x1="-709.58" x2="-709.58" y1="-591.8" y2="-169.55" gradientTransform="matrix(.97225 -.17202 .17202 .97225 1048.4 467.96)" gradientUnits="userSpaceOnUse" xlink:href="#bubble"/>
 </defs>
 <path d="m45.052 101.9c129.25-132 493.57-135.23 590.14 23.611 81.36 148.63-186.75 237.38-347.05 292.27-67.935 23.261-159.5 56.539-207.49 3.132-73.02-90.401-94.915-255.13-35.591-319.01z" fill="url(#bubble-top)" opacity=".66"/>
 <path d="m57.975 53.589c150.27-107.46 509.58-47.168 577 126.07 54.22 160.54-225.25 201.21-392.67 227.33-70.948 11.069-166.91 27.886-204.87-33.067-56.153-101.74-49.013-267.76 20.533-320.33z" fill="url(#bubble-bottom)"/>
</svg>
