<?xml version="1.0" encoding="UTF-8"?>
<svg version="1.1" viewBox="0 0 111.58 75.361" xmlns="http://www.w3.org/2000/svg" xmlns:cc="http://creativecommons.org/ns#" xmlns:dc="http://purl.org/dc/elements/1.1/" xmlns:rdf="http://www.w3.org/1999/02/22-rdf-syntax-ns#" xmlns:xlink="http://www.w3.org/1999/xlink">
 <defs>
  <linearGradient id="linearGradient936" x1="-725.3" x2="-709.58" y1="-452.67" y2="-169.55" gradientTransform="matrix(.92665 -.34084 .34084 .92665 1084.8 140.62)" gradientUnits="userSpaceOnUse">
   <stop stop-color="#6346bd" offset="0"/>
   <stop stop-color="#333b8c" offset="1"/>
  </linearGradient>
  <linearGradient id="linearGradient1340" x1="-667.14" x2="-713.66" y1="-406.33" y2="-146.76" gradientTransform="matrix(.97186 -.17418 .17418 .97186 1041 271.3)" gradientUnits="userSpaceOnUse">
   <stop stop-color="#6346bd" offset="0"/>
   <stop stop-color="#333b8c" offset="1"/>
  </linearGradient>
 </defs>
 <metadata>
  <rdf:RDF>
   <cc:Work rdf:about="">
    <dc:format>image/svg+xml</dc:format>
    <dc:type rdf:resource="http://purl.org/dc/dcmitype/StillImage"/>
    <dc:title/>
   </cc:Work>
  </rdf:RDF>
 </metadata>
 <g transform="translate(-619.69 -38.211)">
  <path transform="matrix(.26458 0 0 .26458 619.69 38.211)" d="m17.021 0c-13.681 80.848 33.674 201.53 106.95 265.03 56.668 44.102 140.92-4.8068 203.69-39.688 28.697-15.948 61.157-33.88 94.064-53.357v-171.98h-404.7z" fill="url(#linearGradient936)" opacity=".66"/>
  <path transform="matrix(.26458 0 0 .26458 619.69 38.211)" d="m3.6016 0c-5.0755 74.205 21.053 166.63 69.553 226.4 48.117 53.3 139.6 19.818 207.49-3.5938 42.32-14.596 92.154-31.583 141.08-51.4v-171.41h-418.12z" fill="url(#linearGradient1340)"/>
 </g>
</svg>
