<?xml version="1.0" encoding="UTF-8"?>
<svg version="1.1" viewBox="0 0 111.58 75.361" xmlns="http://www.w3.org/2000/svg">
 <defs>
  <linearGradient id="linearGradient936" x1="-788.56" x2="-709.58" y1="-436.53" y2="-169.55" gradientTransform="matrix(.92665 -.34084 .34084 .92665 1084.8 140.62)" gradientUnits="userSpaceOnUse">
   <stop class="gradient-primary-start" stop-color="#6346bd" offset="0"/>
   <stop class="gradient-primary-stop" stop-color="#333b8c" offset="1"/>
  </linearGradient>
  <linearGradient id="linearGradient1340" x1="-787.02" x2="-727.49" y1="-398.21" y2="-145.82" gradientTransform="matrix(.97186 -.17418 .17418 .97186 1041 271.3)" gradientUnits="userSpaceOnUse">
   <stop class="gradient-primary-start" stop-color="#6346bd" offset="0"/>
   <stop class="gradient-primary-stop" stop-color="#333b8c" offset="1"/>
  </linearGradient>
 </defs>
 <g transform="translate(-619.69 -38.211)">
  <path transform="matrix(.26458 0 0 .26458 619.69 38.211)" d="m17.021 0c-13.681 80.848 33.674 201.53 106.95 265.03 56.668 44.102 140.92-4.8068 203.69-39.688 28.697-15.948 61.157-33.88 94.064-53.357v-171.98h-404.7z" fill="url(#linearGradient936)" opacity=".66"/>
  <path transform="matrix(.26458 0 0 .26458 619.69 38.211)" d="m3.6016 0c-5.0755 74.205 21.053 166.63 69.553 226.4 48.117 53.3 139.6 19.818 207.49-3.5938 42.32-14.596 92.154-31.583 141.08-51.4v-171.41h-418.12z" fill="url(#linearGradient1340)"/>
 </g>
</svg>
