<svg xmlns="http://www.w3.org/2000/svg" width="145.463" height="145.464" viewBox="0 0 38.487 38.487">



<path id="logo-bottom" fill="#6645e8" fill-opacity=".64" d="M26.477 0a6.67 6.67 0 00-1.653.229L4.904 5.566a6.597 6.597 0 00-4.675 8.097l5.337 19.92a6.597 6.597 0 008.098 4.676l19.92-5.338a6.596 6.596 0 004.674-8.097l-5.337-19.92A6.597 6.597 0 0026.477 0z"/><path id="logo-top" fill="#3445e7" d="M8.932 2.32a6.597 6.597 0 00-6.61 6.612v20.623a6.597 6.597 0 006.61 6.612h20.623a6.597 6.597 0 006.611-6.612V8.932a6.597 6.597 0 00-6.61-6.611z"/><path fill="#fff" d="M24.157 9.719c-1.12 0-2.023.917-2.023 2.057v9.94a2.89 2.939 0 01-2.89 2.938 2.89 2.939 0 01-2.89-2.938 2.023 2.057 0 00-2.024-2.058 2.023 2.057 0 00-2.023 2.057 6.937 7.053 0 000 .001 2.023 2.057 0 00.009.178 6.937 7.053 0 006.928 6.875 6.937 7.053 0 006.936-7.054v-9.939c0-1.14-.902-2.057-2.023-2.057z"/></svg>