<?xml version="1.0" encoding="UTF-8"?>
<svg class="d-inline-block align-top" width="24" height="24" alt="Logo" version="1.1" viewBox="0 0 24.308 24.308" xmlns="http://www.w3.org/2000/svg" xmlns:cc="http://creativecommons.org/ns#" xmlns:dc="http://purl.org/dc/elements/1.1/" xmlns:rdf="http://www.w3.org/1999/02/22-rdf-syntax-ns#" xmlns:xlink="http://www.w3.org/1999/xlink">
 <metadata>
  <rdf:RDF>
   <cc:Work rdf:about="">
    <dc:format>image/svg+xml</dc:format>
    <dc:type rdf:resource="http://purl.org/dc/dcmitype/StillImage"/>
    <dc:title/>
   </cc:Work>
  </rdf:RDF>
 </metadata>
 <defs>
  <linearGradient id="linearGradient918" x1="33.844" x2="-.0001181" y1="33.848" y2="-.00059844" gradientTransform="matrix(.71822 0 0 .71815 -3.1092e-5 -3.7049e-5)" gradientUnits="userSpaceOnUse">
   <stop stop-color="#4355e9" offset="0"/>
   <stop stop-color="#8c55ea" offset="1"/>
  </linearGradient>
 </defs>
 <rect x="-.00011034" y="-.00013145" width="24.308" height="24.308" rx="3.9463" ry="3.9459" fill="url(#linearGradient918)" stroke-width="1.9127"/>
 <path d="m10.947 7.5008c-0.54721 0-0.98884 0.44745-0.98884 1.0044v4.8557a1.412 1.4358 0 0 1-1.4122 1.4362 1.412 1.4358 0 0 1-1.4122-1.4362 0.9884 1.0049 0 0 0-0.98884-1.0044 0.9884 1.0049 0 0 0-0.98742 1.0044 0.9884 1.0049 0 0 0 0.00426 0.08808 3.3893 3.4457 0 0 0 3.3842 3.3583 3.3893 3.4457 0 0 0 3.3885-3.4464v-5.2819c0-0.32099-0.25723-0.57819-0.57824-0.57819h-0.40633c-9.46e-4 -2.8e-6 -0.0019 0-0.0028 0zm2.4394 0c-0.32102 0-0.57967 0.25863-0.57967 0.57961v0.81544c0 0.32099 0.25865 0.57961 0.57967 0.57961h0.41202c0.0049 6.67e-5 0.0093 0.00144 0.01421 0.00144h1.891c0.78342 3.763e-4 1.4186 0.61833 1.4335 1.3851 6.4e-5 0.05905 9.46e-4 0.73334 0.0015 1.2913-4.4e-4 0.55833-0.0014 1.2322-0.0015 1.2913-0.01422 0.76738-0.64967 1.3861-1.4335 1.3865h-0.72032c-0.55698 0-1.0059 0.43968-1.0059 0.98733 0 0.54716 0.44891 0.98875 1.0059 0.98875h0.72032c1.8634 2.87e-4 3.3725-1.4569 3.4354-3.2745h0.01137s-2e-3 -0.8066 0-2.6438c6e-6 -0.0031 0-0.11507 0-0.11507h-0.01137c-0.06347-1.8171-1.5724-3.2734-3.4354-3.2731h-1.5017z" fill="#fff" stroke-width=".48856"/>
</svg>
