<svg xmlns="http://www.w3.org/2000/svg" width="596.011" height="596.009" viewBox="0 0 157.695 157.694"><g fill="#fff"><path fill-opacity=".372" d="M105.75 7.278c-2.03.022-4.093.298-6.149.849L25.514 27.978A24.535 24.535 0 008.127 58.093l19.852 74.088a24.535 24.535 0 0030.115 17.387l74.087-19.852a24.535 24.535 0 0017.387-30.115l-19.852-74.087A24.534 24.534 0 00105.75 7.278zm-9.186 37.79a7.279 7.279 0 017.296 7.295v35.25a25.013 25.013 0 01-25.013 25.013 25.013 25.013 0 01-24.982-24.38 7.296 7.296 0 01-.031-.63 25.013 25.013 0 010-.003 7.296 7.296 0 017.294-7.297 7.296 7.296 0 017.296 7.296 7.296 7.296 0 000 .001 10.422 10.422 0 0010.423 10.422 10.422 10.422 0 0010.422-10.422v-35.25a7.278 7.278 0 017.295-7.294z"/><path fill-opacity=".372" d="M51.945 7.278a24.534 24.534 0 00-23.966 18.236L8.127 99.6a24.535 24.535 0 0017.387 30.115L99.6 149.568a24.535 24.535 0 0030.115-17.387l19.852-74.088a24.535 24.535 0 00-17.387-30.115L58.094 8.127a24.797 24.797 0 00-6.15-.85zm44.619 37.79a7.279 7.279 0 017.296 7.295v35.25a25.013 25.013 0 01-25.013 25.013 25.013 25.013 0 01-24.982-24.38 7.296 7.296 0 01-.031-.63 25.013 25.013 0 010-.003 7.296 7.296 0 017.294-7.297 7.296 7.296 0 017.296 7.296 7.296 7.296 0 000 .001 10.422 10.422 0 0010.423 10.422 10.422 10.422 0 0010.422-10.422v-35.25a7.278 7.278 0 017.295-7.294z"/><path fill-opacity=".641" d="M40.497 15.908a24.535 24.535 0 00-24.589 24.589v76.701a24.535 24.535 0 0024.589 24.589h76.7a24.535 24.535 0 0024.59-24.589V40.497a24.535 24.535 0 00-24.59-24.589zm56.067 29.16a7.443 7.443 0 011.827.23 7.26 7.26 0 013.337 1.902 7.271 7.271 0 012.132 5.163v35.25a25.013 25.013 0 01-.107 2.134 25.013 25.013 0 01-.15 1.235 25.013 25.013 0 01-.187 1.24 25.013 25.013 0 01-.275 1.221 25.013 25.013 0 01-.308 1.205 25.013 25.013 0 01-.393 1.187 25.013 25.013 0 01-.43 1.178 25.013 25.013 0 01-.509 1.134 25.013 25.013 0 01-.544 1.128 25.013 25.013 0 01-.623 1.085 25.013 25.013 0 01-.653 1.066 25.013 25.013 0 01-.721 1.008 25.013 25.013 0 01-.764 1.005 25.013 25.013 0 01-.82.932 25.013 25.013 0 01-.854.918 25.013 25.013 0 01-.913.85 25.013 25.013 0 01-.941.827 25.013 25.013 0 01-.987.75 25.013 25.013 0 01-1.025.733 25.013 25.013 0 01-1.06.65 25.013 25.013 0 01-1.088.625 25.013 25.013 0 01-1.122.541 25.013 25.013 0 01-1.143.512 25.013 25.013 0 01-1.175.429 25.013 25.013 0 01-1.18.392 25.013 25.013 0 01-1.222.312 25.013 25.013 0 01-1.211.272 25.013 25.013 0 01-1.229.186 25.013 25.013 0 01-1.252.152 25.013 25.013 0 01-2.127.106 25.013 25.013 0 01-1.801-.092 25.013 25.013 0 01-1.248-.12 25.013 25.013 0 01-1.237-.188 25.013 25.013 0 01-1.217-.24 25.013 25.013 0 01-1.22-.313 25.013 25.013 0 01-1.187-.361 25.013 25.013 0 01-1.183-.434 25.013 25.013 0 01-1.141-.476 25.013 25.013 0 01-1.141-.552 25.013 25.013 0 01-1.08-.585 25.013 25.013 0 01-1.077-.66 25.013 25.013 0 01-1.03-.698 25.013 25.013 0 01-.997-.76 25.013 25.013 0 01-.953-.795 25.013 25.013 0 01-.922-.86 25.013 25.013 0 01-.867-.886 25.013 25.013 0 01-.83-.947 25.013 25.013 0 01-.772-.964 25.013 25.013 0 01-.736-1.03 25.013 25.013 0 01-.67-1.033 25.013 25.013 0 01-.632-1.104 25.013 25.013 0 01-.562-1.092 25.013 25.013 0 01-.514-1.153 25.013 25.013 0 01-.456-1.155 25.013 25.013 0 01-.395-1.193 25.013 25.013 0 01-.337-1.195 25.013 25.013 0 01-.274-1.225 25.013 25.013 0 01-.217-1.225 25.013 25.013 0 01-.15-1.241 25.013 25.013 0 01-.136-1.803 7.296 7.296 0 01-.031-.63 25.013 25.013 0 010-.003 7.296 7.296 0 01.031-.627 7.296 7.296 0 01.043-.35 7.296 7.296 0 01.055-.366 7.296 7.296 0 01.082-.364 7.296 7.296 0 01.087-.343 7.296 7.296 0 01.12-.359 7.296 7.296 0 01.12-.328 7.296 7.296 0 01.153-.343 7.296 7.296 0 01.155-.321 7.296 7.296 0 01.183-.319 7.296 7.296 0 01.188-.308 7.296 7.296 0 01.217-.303 7.296 7.296 0 01.215-.283 7.296 7.296 0 01.243-.276 7.296 7.296 0 01.248-.266 7.296 7.296 0 01.269-.251 7.296 7.296 0 01.27-.237 7.296 7.296 0 01.294-.224 7.296 7.296 0 01.292-.209 7.296 7.296 0 01.313-.192 7.296 7.296 0 01.316-.181 7.296 7.296 0 01.321-.155 7.296 7.296 0 01.343-.154 7.296 7.296 0 01.328-.12 7.296 7.296 0 01.36-.119 7.296 7.296 0 01.348-.089 7.296 7.296 0 01.353-.08 7.296 7.296 0 01.377-.056 7.296 7.296 0 01.344-.042 7.296 7.296 0 01.626-.032 7.296 7.296 0 01.621.032 7.296 7.296 0 01.37.044 7.296 7.296 0 01.348.053 7.296 7.296 0 01.377.084 7.296 7.296 0 01.331.085 7.296 7.296 0 01.367.122 7.296 7.296 0 01.322.117 7.296 7.296 0 01.345.155 7.296 7.296 0 01.32.155 7.296 7.296 0 01.317.181 7.296 7.296 0 01.311.191 7.296 7.296 0 01.297.212 7.296 7.296 0 01.29.22 7.296 7.296 0 01.278.245 7.296 7.296 0 01.26.242 7.296 7.296 0 01.255.274 7.296 7.296 0 01.235.268 7.296 7.296 0 01.226.296 7.296 7.296 0 01.206.289 7.296 7.296 0 01.194.317 7.296 7.296 0 01.18.313 7.296 7.296 0 01.155.32 7.296 7.296 0 01.154.345 7.296 7.296 0 01.121.333 7.296 7.296 0 01.116.35 7.296 7.296 0 01.09.35 7.296 7.296 0 01.08.358 7.296 7.296 0 01.057.373 7.296 7.296 0 01.042.344 7.296 7.296 0 01.031.628 7.296 7.296 0 000 .001 10.422 10.422 0 00.045.886 10.422 10.422 0 00.063.526 10.422 10.422 0 00.077.505 10.422 10.422 0 00.115.514 10.422 10.422 0 00.128.502 10.422 10.422 0 00.163.49 10.422 10.422 0 00.181.496 10.422 10.422 0 00.206.46 10.422 10.422 0 00.235.487 10.422 10.422 0 00.253.44 10.422 10.422 0 00.274.447 10.422 10.422 0 00.306.428 10.422 10.422 0 00.313.412 10.422 10.422 0 00.34.387 10.422 10.422 0 00.362.388 10.422 10.422 0 00.373.347 10.422 10.422 0 00.395.348 10.422 10.422 0 00.415.315 10.422 10.422 0 00.426.304 10.422 10.422 0 00.433.267 10.422 10.422 0 00.464.266 10.422 10.422 0 00.463.223 10.422 10.422 0 00.475.213 10.422 10.422 0 00.489.179 10.422 10.422 0 00.5.165 10.422 10.422 0 00.498.127 10.422 10.422 0 00.508.114 10.422 10.422 0 00.529.08 10.422 10.422 0 00.5.06 10.422 10.422 0 00.894.046 10.422 10.422 0 00.893-.045 10.422 10.422 0 00.501-.06 10.422 10.422 0 00.529-.08 10.422 10.422 0 00.501-.113 10.422 10.422 0 00.51-.13 10.422 10.422 0 00.484-.161 10.422 10.422 0 00.5-.183 10.422 10.422 0 00.47-.21 10.422 10.422 0 00.472-.228 10.422 10.422 0 00.45-.259 10.422 10.422 0 00.443-.271 10.422 10.422 0 00.426-.304 10.422 10.422 0 00.414-.315 10.422 10.422 0 00.396-.348 10.422 10.422 0 00.373-.347 10.422 10.422 0 00.356-.382 10.422 10.422 0 00.348-.396 10.422 10.422 0 00.306-.403 10.422 10.422 0 00.312-.437 10.422 10.422 0 00.267-.434 10.422 10.422 0 00.261-.456 10.422 10.422 0 00.228-.472 10.422 10.422 0 00.21-.47 10.422 10.422 0 00.181-.495 10.422 10.422 0 00.163-.49 10.422 10.422 0 00.129-.502 10.422 10.422 0 00.115-.514 10.422 10.422 0 00.076-.503 10.422 10.422 0 00.064-.528 10.422 10.422 0 00.044-.886v-35.25a7.258 7.258 0 011.242-4.084 7.275 7.275 0 016.053-3.21z"/></g></svg>